<?xml version="1.0" encoding="UTF-8" standalone="no"?>
<!DOCTYPE svg PUBLIC "-//W3C//DTD SVG 1.1//EN" "http://www.w3.org/Graphics/SVG/1.1/DTD/svg11.dtd">
<svg width="100%" height="100%" viewBox="0 0 1302 1302" version="1.1" xmlns="http://www.w3.org/2000/svg" xmlns:xlink="http://www.w3.org/1999/xlink" xml:space="preserve" xmlns:serif="http://www.serif.com/" style="fill-rule:evenodd;clip-rule:evenodd;">
    <g transform="matrix(1,0,0,1,359.692,311.757)">
        <circle cx="290.922" cy="338.828" r="636.441" style="fill:rgb(31,31,31);stroke:url(#_Linear1);stroke-width:28.35px;"/>
        <path d="M-87.124,-39.212L-87.124,716.88L668.997,716.88L668.997,-39.212L-87.124,-39.212ZM-41.777,6.134L623.634,6.134L623.634,671.545L-41.777,671.545L-41.777,6.134Z" style="fill:rgb(234,234,235);fill-rule:nonzero;"/>
        <g transform="matrix(3,0,0,3,-953.06,-834.608)">
            <path d="M328.34,451.903L307.34,430.903L307.34,351.402L328.34,330.402L387.59,330.402L408.59,351.402L408.59,399.37L333.256,399.37L333.256,421.024L340.342,428.341L378.122,428.341L383.137,422.379L383.137,408.932L408.59,408.932L408.59,433.403L390.34,451.903L328.34,451.903ZM333.49,376.972L382.904,376.972L382.904,359.407L376.533,352.572L339.878,352.572L333.49,360.801L333.49,376.972Z" style="fill:rgb(234,234,235);fill-rule:nonzero;"/>
            <path d="M441.727,451.903L420.727,430.903L420.727,351.402L441.727,330.402L500.977,330.402L521.977,351.402L521.977,399.37L446.643,399.37L446.643,421.024L453.728,428.341L491.509,428.341L496.524,422.379L496.524,408.932L521.977,408.932L521.977,433.403L503.727,451.903L441.727,451.903ZM446.877,376.972L496.291,376.972L496.291,359.407L489.92,352.572L453.265,352.572L446.877,360.801L446.877,376.972Z" style="fill:rgb(234,234,235);fill-rule:nonzero;"/>
        </g>
    </g>
    <defs>
        <linearGradient id="_Linear1" x1="0" y1="0" x2="1" y2="0" gradientUnits="userSpaceOnUse" gradientTransform="matrix(-794.658,-796.807,796.807,-794.658,707.534,757.594)"><stop offset="0" style="stop-color:rgb(55,55,55);stop-opacity:1"/><stop offset="1" style="stop-color:rgb(31,31,31);stop-opacity:1"/></linearGradient>
    </defs>
</svg>
